<?xml version="1.0" encoding="UTF-8"?>
<!DOCTYPE svg PUBLIC "-//W3C//DTD SVG 1.1//EN" "http://www.w3.org/Graphics/SVG/1.1/DTD/svg11.dtd">
<!-- Creator: CorelDRAW 2020 (64 Bit) -->
<svg xmlns="http://www.w3.org/2000/svg" xml:space="preserve" width="184px" height="111px" version="1.1" style="shape-rendering:geometricPrecision; text-rendering:geometricPrecision; image-rendering:optimizeQuality; fill-rule:evenodd; clip-rule:evenodd"
viewBox="0 0 33.45 20.29"
 xmlns:xlink="http://www.w3.org/1999/xlink"
 xmlns:xodm="http://www.corel.com/coreldraw/odm/2003">
 <defs>
  <style type="text/css">
   <![CDATA[
    .fil1 {fill:#FEFEFE}
    .fil0 {fill:#385999}
   ]]>
  </style>
 </defs>
 <g id="Camada_x0020_1">
  <metadata id="CorelCorpID_0Corel-Layer"/>
  <g id="_2061429783440">
   <rect class="fil0" width="33.45" height="20.29" rx="2.46" ry="4.55"/>
   <g>
    <path class="fil1" d="M12.93 10.03c0.14,0.11 0.36,0.07 0.59,0.07 0.64,0 1.5,-0.02 2.1,0 0.04,0.59 -0.05,4.44 0.03,4.54 0.08,0.09 2.02,0.08 2.1,0.02 0.12,-0.1 0.07,-0.22 0.07,-0.49 0,-1.25 -0.03,-2.93 0.01,-4.07 0.46,0 0.91,0 1.37,0 0.34,0 1.11,0.08 1.32,-0.07 0.03,-0.21 -0.15,-0.26 -0.39,-0.51 -0.69,-0.71 -1.67,-1.56 -2.4,-2.29 -0.18,-0.18 -0.3,-0.27 -0.48,-0.44 -0.58,-0.54 -0.41,-0.63 -1.03,-0.02l-0.97 0.91c-0.6,0.59 -1.32,1.23 -1.92,1.82 -0.26,0.25 -0.43,0.34 -0.4,0.53z"/>
    <path class="fil1" d="M12.6 6.07l8.19 0c0.2,0 0.43,-0.01 0.39,-0.28 -0.03,-0.23 -0.23,-0.21 -0.46,-0.21l-7.99 0c-0.22,0 -0.42,-0.01 -0.46,0.19 -0.05,0.22 0.13,0.3 0.33,0.3z"/>
   </g>
  </g>
 </g>
</svg>
