<?xml version="1.0" encoding="UTF-8"?>
<!DOCTYPE svg PUBLIC "-//W3C//DTD SVG 1.1//EN" "http://www.w3.org/Graphics/SVG/1.1/DTD/svg11.dtd">
<!-- Creator: CorelDRAW 2020 (64 Bit) -->
<svg xmlns="http://www.w3.org/2000/svg" xml:space="preserve" width="74px" height="67px" version="1.1" style="shape-rendering:geometricPrecision; text-rendering:geometricPrecision; image-rendering:optimizeQuality; fill-rule:evenodd; clip-rule:evenodd"
viewBox="0 0 15.34 13.8"
 xmlns:xlink="http://www.w3.org/1999/xlink"
 xmlns:xodm="http://www.corel.com/coreldraw/odm/2003">
 <defs>
  <style type="text/css">
   <![CDATA[
    .fil0 {fill:#9E9E9D}
   ]]>
  </style>
 </defs>
 <g id="Camada_x0020_1">
  <metadata id="CorelCorpID_0Corel-Layer"/>
  <g id="_2302879538464">
   <path class="fil0" d="M14.41 4.9c0.04,1.2 0,2.48 0,3.69 0,1.22 0.01,2.44 0,3.66 -0.01,0.74 -0.6,0.63 -1.24,0.63l-11.03 0c-0.63,0 -1.2,0.1 -1.21,-0.63 -0.01,-1.23 0,-2.46 0,-3.69 0,-1.2 -0.04,-2.46 0.01,-3.67l13.47 0.01zm0.89 7.76c0.07,-0.59 0.03,-6.51 0.03,-7.26 0,-0.61 0.05,-3.15 -0.06,-3.56 -0.36,-1.22 -1.63,-1.05 -2.61,-1.03l0.01 0.91c0.33,0 0.66,0 1,0 0.34,0 0.56,0.05 0.69,0.3 0.1,0.23 0.05,1.6 0.05,1.96 -4.45,0.01 -9.02,0.01 -13.48,0 0,-0.36 -0.05,-1.73 0.06,-1.96 0.12,-0.25 0.35,-0.3 0.69,-0.3 0.33,0 0.66,0 1,0l0 -0.91c-0.58,-0.01 -1.42,-0.08 -1.87,0.16 -0.4,0.2 -0.76,0.61 -0.79,1.22 -0.04,0.64 -0.01,1.37 -0.01,2.01l0 8.02c0,0.67 0.27,1.07 0.66,1.33 0.49,0.33 1.11,0.24 1.77,0.24 3.34,0 6.68,0 10.03,0 0.5,0 1.51,0.06 1.92,-0.09 0.34,-0.13 0.63,-0.41 0.78,-0.71 0.06,-0.1 0.09,-0.26 0.13,-0.33z"/>
   <polygon class="fil0" points="2.38,11.93 2.61,11.94 4.63,11.94 4.8,11.93 4.81,9.52 2.37,9.51 "/>
   <polygon class="fil0" points="10.54,8.17 12.96,8.17 12.97,5.74 10.55,5.74 "/>
   <polygon class="fil0" points="6.46,11.94 8.88,11.94 8.89,9.51 6.46,9.51 "/>
   <polygon class="fil0" points="2.38,8.17 4.8,8.17 4.8,5.74 2.39,5.74 "/>
   <polygon class="fil0" points="10.54,11.93 12.97,11.94 12.97,9.52 10.54,9.51 "/>
   <polygon class="fil0" points="6.46,8.16 8.89,8.17 8.89,5.75 6.47,5.74 "/>
   <polygon class="fil0" points="4.51,1.72 10.84,1.72 10.84,0.81 4.5,0.81 "/>
   <path class="fil0" d="M11.31 2.19c0.11,0.46 0.87,0.47 0.9,-0.12 0.02,-0.26 0.03,-1.53 -0.01,-1.72 -0.11,-0.49 -0.88,-0.48 -0.9,0.11 -0.02,0.26 -0.03,1.54 0.01,1.73z"/>
   <path class="fil0" d="M3.15 2.19c0.11,0.47 0.87,0.47 0.9,-0.12 0.01,-0.27 0.03,-1.51 -0.01,-1.72 -0.11,-0.48 -0.88,-0.48 -0.91,0.11 -0.01,0.26 -0.03,1.54 0.02,1.73z"/>
  </g>
 </g>
</svg>
