<?xml version="1.0" encoding="UTF-8"?>
<!DOCTYPE svg PUBLIC "-//W3C//DTD SVG 1.1//EN" "http://www.w3.org/Graphics/SVG/1.1/DTD/svg11.dtd">
<!-- Creator: CorelDRAW 2020 (64 Bit) -->
<svg xmlns="http://www.w3.org/2000/svg" xml:space="preserve" width="24px" height="19px" version="1.1" style="shape-rendering:geometricPrecision; text-rendering:geometricPrecision; image-rendering:optimizeQuality; fill-rule:evenodd; clip-rule:evenodd"
viewBox="0 0 1.26 1"
 xmlns:xlink="http://www.w3.org/1999/xlink"
 xmlns:xodm="http://www.corel.com/coreldraw/odm/2003">
 <defs>
  <style type="text/css">
   <![CDATA[
    .fil0 {fill:#FEFEFE}
   ]]>
  </style>
 </defs>
 <g id="Camada_x0020_1">
  <metadata id="CorelCorpID_0Corel-Layer"/>
  <g id="_1321082329104">
   <path class="fil0" d="M0.42 0.05l0.21 0c0.07,0 0.14,0.01 0.21,0 0.01,0.02 0.03,0.13 0.03,0.14 0.01,0.02 0.03,0.01 0.05,0.01 0.06,0 0.16,0 0.21,0.02 0.05,0.03 0.08,0.08 0.08,0.15l0 0.35c0,0.03 0,0.08 -0.01,0.11 -0.01,0.06 -0.05,0.1 -0.11,0.11 -0.04,0.01 -0.18,0 -0.23,0l-0.57 0c-0.03,0 -0.08,0.01 -0.11,0 -0.07,-0.01 -0.11,-0.05 -0.12,-0.11 -0.01,-0.04 0,-0.18 0,-0.23 0,-0.07 0,-0.15 0,-0.23 0,-0.19 0.15,-0.17 0.28,-0.17 0.05,0 0.05,0 0.06,-0.05 0,-0.02 0.02,-0.09 0.02,-0.1zm0.57 0.04l0.08 0 0 0.06 -0.08 0 0 -0.06zm-0.65 0.06c-0.07,0 -0.14,-0.01 -0.2,0.01 -0.06,0.02 -0.1,0.06 -0.12,0.1 -0.03,0.06 -0.02,0.12 -0.02,0.19 0,0.07 0,0.14 0,0.21 0,0.07 -0.01,0.15 0.01,0.21 0.02,0.04 0.06,0.09 0.11,0.11 0.06,0.02 0.11,0.02 0.19,0.02 0.21,0 0.42,0 0.64,0 0.06,0 0.14,0 0.19,-0.02 0.05,-0.02 0.09,-0.06 0.11,-0.11 0.02,-0.06 0.01,-0.14 0.01,-0.2 0,-0.07 0,-0.14 0,-0.21 0,-0.07 0.01,-0.14 -0.02,-0.2 -0.02,-0.04 -0.04,-0.06 -0.08,-0.08 -0.01,-0.01 -0.02,-0.01 -0.03,-0.02 0,-0.03 0,-0.08 -0.01,-0.1 -0.01,-0.03 -0.04,-0.03 -0.08,-0.03 -0.02,0 -0.04,0 -0.05,0 -0.02,0 -0.03,0.01 -0.04,0.02 -0.02,0.02 -0.01,0.07 -0.01,0.1l-0.02 0 -0.02 -0.09c-0.01,-0.05 -0.01,-0.06 -0.05,-0.06l-0.44 0c-0.02,0 -0.03,0 -0.04,0.02l-0.03 0.13z"/>
   <path class="fil0" d="M0.62 0.25c0.04,-0.01 0.08,0 0.11,0.01 0.07,0.03 0.11,0.07 0.15,0.13 0.03,0.06 0.04,0.14 0.01,0.21 -0.03,0.1 -0.12,0.17 -0.22,0.18 -0.08,0.01 -0.16,-0.03 -0.2,-0.07 -0.11,-0.1 -0.12,-0.26 -0.03,-0.37 0.02,-0.03 0.04,-0.04 0.08,-0.06 0.03,-0.02 0.06,-0.03 0.1,-0.03zm0.01 -0.06c-0.07,0.01 -0.13,0.03 -0.18,0.07 -0.01,0 -0.01,0.01 -0.02,0.01 -0.03,0.04 -0.06,0.06 -0.08,0.12 -0.09,0.22 0.08,0.45 0.31,0.44 0.25,-0.01 0.4,-0.29 0.24,-0.51 -0.02,-0.02 -0.04,-0.05 -0.06,-0.06 -0.03,-0.02 -0.04,-0.03 -0.08,-0.04 -0.04,-0.02 -0.09,-0.03 -0.13,-0.03z"/>
   <path class="fil0" d="M0.5 0.53c-0.01,-0.09 0.05,-0.15 0.13,-0.16 0.08,-0.01 0.15,0.05 0.16,0.13 0.01,0.08 -0.06,0.15 -0.13,0.16 -0.09,0.01 -0.15,-0.06 -0.16,-0.13zm0.12 -0.22c-0.11,0.02 -0.19,0.12 -0.18,0.23 0.02,0.1 0.11,0.18 0.23,0.17 0.11,-0.01 0.18,-0.11 0.17,-0.22 -0.01,-0.1 -0.11,-0.19 -0.22,-0.18z"/>
   <path class="fil0" d="M0.14 0.28c-0.02,0 -0.03,0.02 -0.02,0.04 0.01,0.02 0.03,0.01 0.05,0.01 0.02,0 0.1,0.01 0.12,0 0.01,0 0.02,-0.02 0.01,-0.04 -0.01,-0.01 -0.02,-0.01 -0.04,-0.01 -0.03,0 -0.11,0 -0.12,0z"/>
  </g>
 </g>
</svg>
