<?xml version="1.0" encoding="UTF-8"?>
<!DOCTYPE svg PUBLIC "-//W3C//DTD SVG 1.1//EN" "http://www.w3.org/Graphics/SVG/1.1/DTD/svg11.dtd">
<!-- Creator: CorelDRAW 2020 (64 Bit) -->
<svg xmlns="http://www.w3.org/2000/svg" xml:space="preserve" width="21px" height="21px" version="1.1" style="shape-rendering:geometricPrecision; text-rendering:geometricPrecision; image-rendering:optimizeQuality; fill-rule:evenodd; clip-rule:evenodd"
viewBox="0 0 0.65 0.65"
 xmlns:xlink="http://www.w3.org/1999/xlink"
 xmlns:xodm="http://www.corel.com/coreldraw/odm/2003">
 <defs>
  <style type="text/css">
   <![CDATA[
    .fil0 {fill:#898988}
   ]]>
  </style>
 </defs>
 <g id="Camada_x0020_1">
  <metadata id="CorelCorpID_0Corel-Layer"/>
  <g id="_2428331591376">
   <path class="fil0" d="M0.06 0.58l0.03 -0.1c0,-0.01 0.01,-0.02 0.01,-0.03l0.1 0.1c-0.02,0 -0.12,0.03 -0.14,0.03zm0.19 -0.05l-0.13 -0.13 0.28 -0.28 0.13 0.13 -0.28 0.28zm0.19 -0.45c0.05,-0.07 0.1,0 0.13,0.03 0.04,0.04 0.05,0.07 0,0.1l-0.13 -0.13zm-0.44 0.54c0,0.05 0.06,0.02 0.1,0.01 0.02,0 0.04,-0.01 0.07,-0.02 0.02,0 0.04,-0.01 0.07,-0.02 0.03,0 0.02,0.01 0.06,-0.03l0.31 -0.31c0.02,-0.02 0.03,-0.03 0.04,-0.06 0.02,-0.07 -0.04,-0.11 -0.09,-0.16 -0.03,-0.04 -0.09,-0.04 -0.13,-0.01 -0.02,0.01 -0.29,0.29 -0.34,0.34 -0.02,0.02 -0.02,0.02 -0.03,0.04 -0.01,0.02 -0.06,0.21 -0.06,0.22z"/>
   <polygon class="fil0" points="0.24,0.38 0.27,0.42 0.43,0.26 0.4,0.22 "/>
  </g>
 </g>
</svg>
