<?xml version="1.0" encoding="UTF-8"?>
<!DOCTYPE svg PUBLIC "-//W3C//DTD SVG 1.1//EN" "http://www.w3.org/Graphics/SVG/1.1/DTD/svg11.dtd">
<!-- Creator: CorelDRAW 2020 (64 Bit) -->
<svg xmlns="http://www.w3.org/2000/svg" xml:space="preserve" width="10px" height="10px" version="1.1" style="shape-rendering:geometricPrecision; text-rendering:geometricPrecision; image-rendering:optimizeQuality; fill-rule:evenodd; clip-rule:evenodd"
viewBox="0 0 0.26 0.26"
 xmlns:xlink="http://www.w3.org/1999/xlink"
 xmlns:xodm="http://www.corel.com/coreldraw/odm/2003">
 <defs>
  <style type="text/css">
   <![CDATA[
    .fil0 {fill:#FEFEFE}
   ]]>
  </style>
 </defs>
 <g id="Camada_x0020_1">
  <metadata id="CorelCorpID_0Corel-Layer"/>
  <g id="_1486373340896">
   <path class="fil0" d="M0.03 0.23l0.01 -0.04c0,0 0,-0.01 0,-0.01l0.04 0.04c-0.01,0 -0.05,0.01 -0.05,0.01zm0.07 -0.02l-0.05 -0.05 0.11 -0.11 0.05 0.05 -0.11 0.11zm0.07 -0.18c0.02,-0.03 0.04,0 0.06,0.02 0.01,0.01 0.01,0.02 -0.01,0.03l-0.05 -0.05zm-0.17 0.22c0,0.01 0.02,0 0.04,0 0.01,0 0.02,-0.01 0.03,-0.01 0,0 0.01,0 0.02,-0.01 0.02,0 0.01,0.01 0.03,-0.01l0.12 -0.12c0.01,-0.01 0.01,-0.01 0.02,-0.02 0.01,-0.03 -0.02,-0.05 -0.04,-0.07 -0.01,-0.01 -0.04,-0.01 -0.05,0 -0.01,0 -0.12,0.11 -0.14,0.13 0,0.01 0,0.01 -0.01,0.02 0,0.01 -0.02,0.08 -0.02,0.09z"/>
   <polygon class="fil0" points="0.09,0.15 0.11,0.16 0.17,0.1 0.16,0.09 "/>
  </g>
 </g>
</svg>
