<?xml version="1.0" encoding="UTF-8"?>
<!DOCTYPE svg PUBLIC "-//W3C//DTD SVG 1.1//EN" "http://www.w3.org/Graphics/SVG/1.1/DTD/svg11.dtd">
<!-- Creator: CorelDRAW 2020 (64 Bit) -->
<svg xmlns="http://www.w3.org/2000/svg" xml:space="preserve" width="63px" height="61px" version="1.1" style="shape-rendering:geometricPrecision; text-rendering:geometricPrecision; image-rendering:optimizeQuality; fill-rule:evenodd; clip-rule:evenodd"
viewBox="0 0 4.19 4.01"
 xmlns:xlink="http://www.w3.org/1999/xlink"
 xmlns:xodm="http://www.corel.com/coreldraw/odm/2003">
 <defs>
  <style type="text/css">
   <![CDATA[
    .fil0 {fill:#3B5997}
   ]]>
  </style>
 </defs>
 <g id="Camada_x0020_1">
  <metadata id="CorelCorpID_0Corel-Layer"/>
  <g id="_2206381180768">
   <polygon class="fil0" points="2.84,4.01 2.85,4.01 4.19,3.53 4.19,0.29 2.83,0 "/>
   <path class="fil0" d="M0 1.31l0 1.2c0.11,0.16 0.15,0.12 0.49,0.12 0.2,0 0.42,-0.01 0.62,0 0.01,0.17 -0.07,0.66 0.21,0.53 0.05,-0.02 0.07,-0.05 0.1,-0.09 0.04,-0.04 0.06,-0.05 0.1,-0.1l0.74 -0.81c0.08,-0.09 0.25,-0.24 0.1,-0.38 -0.05,-0.04 -0.06,-0.05 -0.1,-0.1l-0.74 -0.82c-0.01,-0.02 -0.18,-0.19 -0.18,-0.2 -0.11,-0.06 -0.21,0.02 -0.23,0.13 -0.01,0.11 0,0.29 0,0.4 -0.19,0.01 -0.4,0.01 -0.6,0.01 -0.37,0 -0.39,-0.05 -0.51,0.11z"/>
   <path class="fil0" d="M2.06 1.22l0.1 0.01c0.03,-0.19 -0.03,-0.54 0.04,-0.7 0.12,-0.26 0.4,-0.15 0.52,-0.21 0.02,-0.11 0,-0.1 -0.1,-0.11 -0.39,0 -0.57,0.18 -0.57,0.57 0,0.14 -0.02,0.33 0.01,0.44z"/>
   <path class="fil0" d="M2.06 2.62c-0.04,0.17 -0.03,0.62 0.06,0.76 0.13,0.21 0.44,0.27 0.61,0.2l0 -0.09c-0.1,-0.04 -0.23,0.01 -0.36,-0.04 -0.41,-0.16 -0.01,-0.88 -0.31,-0.83z"/>
  </g>
 </g>
</svg>
