<?xml version="1.0" encoding="UTF-8"?>
<!DOCTYPE svg PUBLIC "-//W3C//DTD SVG 1.1//EN" "http://www.w3.org/Graphics/SVG/1.1/DTD/svg11.dtd">
<!-- Creator: CorelDRAW 2020 (64 Bit) -->
<svg xmlns="http://www.w3.org/2000/svg" xml:space="preserve" width="80px" height="80px" version="1.1" style="shape-rendering:geometricPrecision; text-rendering:geometricPrecision; image-rendering:optimizeQuality; fill-rule:evenodd; clip-rule:evenodd"
viewBox="0 0 6.81 6.8"
 xmlns:xlink="http://www.w3.org/1999/xlink"
 xmlns:xodm="http://www.corel.com/coreldraw/odm/2003">
 <defs>
  <style type="text/css">
   <![CDATA[
    .fil0 {fill:#9E9E9D}
   ]]>
  </style>
 </defs>
 <g id="Camada_x0020_1">
  <metadata id="CorelCorpID_0Corel-Layer"/>
  <path class="fil0" d="M6.4 2.76c0.01,0.55 0,1.12 0,1.66 0,0.28 0,0.56 0,0.84 0,0.22 0.03,0.59 -0.05,0.77 -0.07,0.18 -0.24,0.33 -0.47,0.36 -0.12,0.02 -0.29,0.01 -0.41,0.01 -0.47,0 -4.42,0.01 -4.55,-0.01 -0.23,-0.03 -0.39,-0.19 -0.47,-0.36 -0.06,-0.15 -0.05,-0.59 -0.05,-0.78 0.01,-0.28 0.01,-0.55 0.01,-0.83 0,-0.55 -0.01,-1.11 0,-1.66l5.99 0zm-3.47 -1.05c0.08,-0.03 0.34,-0.01 0.44,-0.01l2.26 0c0.16,0 0.27,0.01 0.31,0.13 0.05,0.13 -0.03,0.26 -0.14,0.29 -0.08,0.02 -2.5,0 -2.71,0 -0.16,0 -0.26,-0.01 -0.31,-0.13 -0.03,-0.07 -0.02,-0.14 0.01,-0.19 0.03,-0.05 0.07,-0.08 0.14,-0.09zm-1.55 -0.85c0.38,-0.07 0.68,0.21 0.73,0.52 0.07,0.38 -0.21,0.68 -0.52,0.73 -0.2,0.04 -0.38,-0.03 -0.5,-0.12 -0.43,-0.35 -0.27,-1.03 0.29,-1.13zm1.55 -0.01c0.08,-0.02 2.51,0 2.71,0 0.16,0 0.26,0.01 0.31,0.14 0.05,0.14 -0.05,0.25 -0.15,0.28 -0.07,0.01 -0.78,0 -0.91,0 -0.59,0 -1.23,0.01 -1.81,0 -0.07,0 -0.14,0.01 -0.2,-0.02 -0.16,-0.08 -0.17,-0.35 0.05,-0.4zm-2.01 -0.84c-0.47,0.05 -0.82,0.38 -0.9,0.81 -0.04,0.21 -0.01,0.6 -0.01,0.83l0 3.4c0,0.14 -0.01,0.28 0,0.42 0,0.14 -0.01,0.3 0,0.43 0.05,0.45 0.39,0.8 0.81,0.88 0.21,0.04 0.6,0.02 0.83,0.02 0.29,0 0.57,0 0.85,0l2.97 0c0.13,0 0.3,0.01 0.43,-0.01 0.45,-0.04 0.8,-0.38 0.88,-0.81 0.04,-0.21 0.02,-0.59 0.02,-0.83l0 -3.4c0,-0.25 0.02,-0.59 -0.01,-0.84 -0.04,-0.46 -0.39,-0.81 -0.8,-0.89 -0.22,-0.04 -0.6,-0.01 -0.84,-0.01l-3.82 0c-0.13,0 -0.29,-0.01 -0.41,0z"/>
 </g>
</svg>
