<?xml version="1.0" encoding="UTF-8"?>
<!DOCTYPE svg PUBLIC "-//W3C//DTD SVG 1.1//EN" "http://www.w3.org/Graphics/SVG/1.1/DTD/svg11.dtd">
<!-- Creator: CorelDRAW 2020 (64 Bit) -->
<svg xmlns="http://www.w3.org/2000/svg" xml:space="preserve" width="23px" height="28px" version="1.1" style="shape-rendering:geometricPrecision; text-rendering:geometricPrecision; image-rendering:optimizeQuality; fill-rule:evenodd; clip-rule:evenodd"
viewBox="0 0 0.63 0.77"
 xmlns:xlink="http://www.w3.org/1999/xlink"
 xmlns:xodm="http://www.corel.com/coreldraw/odm/2003">
 <defs>
  <style type="text/css">
   <![CDATA[
    .fil0 {fill:#898988}
   ]]>
  </style>
 </defs>
 <g id="Camada_x0020_1">
  <metadata id="CorelCorpID_0Corel-Layer"/>
  <g id="_2032059605952">
   <path class="fil0" d="M0.23 0.42c0.01,0.01 0.02,0.03 0.02,0.04 0,-0.01 -0.01,-0.03 -0.02,-0.04 -0.01,-0.01 -0.01,-0.02 -0.02,-0.03 -0.02,-0.02 -0.13,-0.21 -0.13,-0.22l0.01 0 0.14 0.25zm0.01 0.06c0,0 0.02,0.03 0.02,0.04 0,0 0,0.15 0,0.17 0.01,0.01 0.07,0.06 0.09,0.07 0,0 0,0 0,0l0.01 0.01c0,-0.01 0,-0.17 0,-0.2 0,-0.01 0,-0.05 0.01,-0.06 0.03,-0.05 0.07,-0.11 0.11,-0.16 0.02,-0.02 0.03,-0.05 0.05,-0.08l0.07 -0.1c0.01,-0.01 0.01,0 0.02,-0.01 0.01,-0.02 0,-0.04 -0.01,-0.05 -0.01,-0.01 -0.11,0 -0.13,0l-0.4 0c-0.04,0 -0.07,-0.01 -0.07,0.03 0,0.01 0,0.02 0.01,0.02 0.01,0.01 0.02,0.03 0.03,0.04l0.11 0.16c0.01,0.02 0.02,0.03 0.02,0.04l0.03 0.04c0.01,0.01 0.03,0.03 0.03,0.04z"/>
   <path class="fil0" d="M0.02 0c-0.01,0 -0.02,0.01 -0.02,0.03 0,0.07 0.01,0.07 0.07,0.07 0.15,-0.01 0.3,0 0.45,0 0.02,0 0.07,0 0.09,-0.01 0.01,0 0.02,-0.01 0.02,-0.02 0,-0.08 -0.01,-0.07 -0.07,-0.07l-0.36 0c-0.02,0 -0.17,0 -0.18,0z"/>
  </g>
 </g>
</svg>
