<?xml version="1.0" encoding="UTF-8"?>
<!DOCTYPE svg PUBLIC "-//W3C//DTD SVG 1.1//EN" "http://www.w3.org/Graphics/SVG/1.1/DTD/svg11.dtd">
<!-- Creator: CorelDRAW 2020 (64 Bit) -->
<svg xmlns="http://www.w3.org/2000/svg" xml:space="preserve" width="68px" height="92px" version="1.1" style="shape-rendering:geometricPrecision; text-rendering:geometricPrecision; image-rendering:optimizeQuality; fill-rule:evenodd; clip-rule:evenodd"
viewBox="0 0 68 92.26"
 xmlns:xlink="http://www.w3.org/1999/xlink"
 xmlns:xodm="http://www.corel.com/coreldraw/odm/2003">
 <defs>
  <style type="text/css">
   <![CDATA[
    .fil0 {fill:#9E9E9D;fill-rule:nonzero}
   ]]>
  </style>
 </defs>
 <g id="Camada_x0020_1">
  <metadata id="CorelCorpID_0Corel-Layer"/>
  <path class="fil0" d="M67.6 38.43c0.23,-0.75 0.16,-1.43 -0.4,-2.08 -0.48,-0.57 -1.01,-1.14 -1.52,-1.67 -0.54,-0.55 -1.26,-0.75 -1.98,-0.93 -0.77,-0.19 -1.47,-0.17 -2.22,0.08 -0.68,0.22 -1.05,0.55 -1.24,1.16 -0.27,0.14 -0.83,0.73 -1,0.84 -0.18,0.12 -0.43,0.23 -0.58,0.37 -0.16,0.15 -0.25,0.46 -0.32,0.67 -0.04,0.14 -0.07,0.28 -0.1,0.41 -0.45,0.1 -0.85,0.74 -1.11,1.04 -0.2,0.25 -0.4,0.53 -0.55,0.82 -0.12,-0.33 -0.52,-0.56 -0.86,-0.65 -0.08,-0.33 -0.2,-0.61 -0.34,-0.95 -0.08,-0.2 -0.43,-0.65 -0.71,-0.75 0.01,-0.12 0.02,-0.24 0.01,-0.33 -0.05,-0.59 -0.31,-0.95 -0.61,-1.44 -0.11,-0.19 -0.38,-0.68 -0.67,-0.95 -0.18,-0.56 -0.94,-0.84 -1.39,-1.1 -0.51,-0.29 -1.09,-0.51 -1.54,-0.9 -0.47,-0.39 -0.81,-0.88 -1.36,-1.18 -0.32,-0.16 -0.63,-0.32 -0.95,-0.48 -0.31,-0.15 -0.63,-0.19 -0.95,-0.31 -0.28,-0.1 -0.55,-0.34 -0.82,-0.48 -0.27,-0.14 -0.38,-0.11 -0.58,-0.06 -0.01,-0.01 -0.02,-0.03 -0.04,-0.04 -0.63,-0.81 -1.43,-1.52 -1.95,-2.4 -0.56,-0.93 -1.14,-1.59 -1.94,-2.29 -0.41,-0.36 -0.83,-0.67 -1.22,-1.05 -0.36,-0.36 -0.82,-0.56 -1.25,-0.84 -0.86,-0.56 -1.75,-1.02 -2.45,-1.81 -0.34,-0.38 -0.66,-0.76 -1.05,-1.1 -0.32,-0.27 -0.71,-0.71 -1.09,-0.93 0.13,-0.19 0.23,-0.4 0.25,-0.64 0.04,-0.33 -0.18,-0.5 -0.31,-0.67 0.09,-0.38 -0.08,-0.85 -0.43,-0.96 -0.02,-0.17 -0.1,-0.29 -0.34,-0.4 -0.18,-0.08 -0.35,-0.14 -0.53,-0.19 -0.16,-0.18 -0.36,-0.32 -0.56,-0.43 -0.28,-0.17 -0.54,-0.28 -0.9,-0.18 -0.14,0.24 -0.29,0.45 -0.46,0.67 -0.2,0.26 -0.04,0.49 -0.03,0.8 0.01,0.56 0.08,1.03 0.29,1.54 -0.03,0.02 -0.07,0.04 -0.1,0.08 -0.09,0.12 -0.09,0.29 -0.05,0.42 0.04,0.15 0.22,0.47 0.37,0.63 -0.05,0.44 0.1,0.95 0.38,1.22 0.32,0.32 0.77,0.33 1.14,0.49 0.62,0.57 1.1,1.19 1.52,1.93 0.49,0.87 0.96,1.89 1.55,2.7 0.29,0.4 0.45,0.62 0.69,1.06 0.29,0.54 0.73,0.94 1.23,1.28 0.46,0.3 0.93,0.56 1.34,0.94 0.4,0.36 0.77,0.78 1.2,1.1 0.45,0.34 0.89,0.64 1.31,1.02 0.31,0.28 0.51,0.63 0.74,0.95 -0.06,0.26 -0.08,0.6 -0.06,0.73 0.06,0.34 0.31,0.46 0.57,0.64 0.32,0.22 0.46,0.48 0.62,0.83 0.14,0.3 0.39,0.49 0.56,0.77 0.13,0.2 0.23,0.45 0.3,0.69 -0.31,0.2 -0.62,0.39 -0.95,0.53 -0.39,0.17 -0.81,0.26 -1.21,0.4 -0.45,0.15 -0.96,0.15 -1.42,0.07 -0.39,-0.07 -0.83,-0.3 -1.22,-0.3 -0.27,0 -0.59,-0.1 -0.88,-0.12 -0.03,-0.04 -0.06,-0.08 -0.09,-0.11 -0.17,-0.21 -0.33,-0.41 -0.51,-0.61 -0.28,-0.31 -0.61,-0.54 -1.01,-0.66 -0.45,-0.14 -0.89,0.01 -1.36,-0.04 -0.46,-0.04 -0.92,0.03 -1.37,-0.05 -0.29,-0.05 -0.69,-0.12 -1.04,-0.1 -0.24,-0.37 -0.68,-0.71 -0.95,-0.94 -0.4,-0.33 -0.76,-0.73 -1.14,-1.08 -0.73,-0.69 -1.48,-1.27 -2.1,-2.08 -0.29,-0.36 -0.54,-0.76 -0.83,-1.13 -0.3,-0.4 -0.68,-0.66 -1.05,-0.98 -0.41,-0.35 -0.7,-0.78 -1.07,-1.17 -0.35,-0.37 -0.84,-0.67 -1.25,-0.98 -0.36,-0.28 -0.76,-0.53 -1.15,-0.77 -0.14,-0.08 -0.46,-0.4 -0.71,-0.53 -0.03,-0.07 -0.06,-0.14 -0.09,-0.2 -0.3,-0.55 -0.74,-1.01 -1.2,-1.43 -0.28,-0.25 -0.59,-0.51 -0.85,-0.78 -0.22,-0.22 -1.35,-1.5 -2.01,-2.17 -0.09,-0.16 -0.14,-0.28 -0.16,-0.36 -0.14,-0.76 -0.55,-1.37 -0.78,-2.08 -0.15,-0.43 -0.35,-0.84 -0.49,-1.27 -0.06,-0.22 -0.18,-0.38 -0.28,-0.57 -0.09,-0.17 -0.13,-0.43 -0.23,-0.61 0.02,-0.27 0.06,-0.55 0.06,-0.73 0,-0.4 0.01,-0.79 -0.2,-1.14 -0.23,-0.4 -0.55,-0.68 -0.82,-1.03 -0.45,-0.6 -0.48,-1.6 -0.99,-2.13 0,-0.46 -0.06,-1.04 -0.29,-1.41 0.11,-0.25 0.22,-0.48 0.15,-0.79 -0.05,-0.23 -0.33,-0.85 -0.6,-1 0.12,-0.7 0.29,-1.46 0.12,-2.12 -0.21,-0.78 -0.88,-0.9 -1.55,-0.65 -0.73,0.26 -1.4,0.64 -2.15,0.84 -1.53,0.43 -3.05,0.83 -4.58,1.21 -0.13,-0.16 -0.26,-0.31 -0.39,-0.47 -0.19,-0.25 -0.4,-0.69 -0.65,-0.94 0.06,-0.13 0.1,-0.25 0.09,-0.34 -0.05,-0.25 -0.25,-0.38 -0.37,-0.58 -0.12,-0.23 -0.16,-0.55 -0.23,-0.81 -0.13,-0.45 -0.24,-1.05 -0.36,-1.44 0.39,-0.59 0.64,-1.32 0.27,-1.98 -0.41,-0.73 -1.3,-0.5 -1.92,-0.23 -0.78,0.33 -1.57,0.75 -2.27,1.22 -1.29,0.87 -1.38,2.85 -0.21,3.84 0.07,0.17 0.17,0.35 0.22,0.53 0.07,0.29 0.14,0.55 0.26,0.82 0.13,0.3 0.15,0.5 0.46,0.64 0.2,0.09 0.4,0.13 0.6,0.17 0.18,0.39 0.47,0.73 0.87,0.93 0.22,0.12 0.46,0.16 0.68,0.28 0.12,0.07 0.24,0.16 0.37,0.23 0,0 0,0 0,0 0.09,0.28 0.13,0.58 0.26,0.84 0.14,0.27 0.3,0.52 0.5,0.75 0.28,0.3 0.59,0.59 0.81,0.92 0.21,0.3 0.35,0.63 0.53,0.96 0.18,0.32 0.36,0.66 0.54,0.99 0.19,0.34 0.43,0.63 0.61,0.98 0.36,0.67 0.66,1.35 1.12,1.98 0.24,0.32 0.48,0.63 0.71,0.97 0.06,0.09 0.12,0.18 0.19,0.28 0.03,0.12 0.07,0.24 0.11,0.36 0.11,0.26 0.27,0.48 0.42,0.71 0.41,0.63 0.93,1.1 1.42,1.64 0.18,0.19 1.4,1.58 1.92,2.25 0.06,0.58 0.45,1.18 0.64,1.68 0.27,0.75 0.34,1.54 0.78,2.22 0.87,1.34 1.79,2.66 2.77,3.93 0.31,0.4 0.62,0.79 0.94,1.18 0.15,-0.02 0.29,0.25 0.4,0.49 0.06,0.13 0.11,0.25 0.14,0.32 0.18,0.36 0.39,0.71 0.58,1.06 0.21,0.4 0.47,0.73 0.75,1.07 0.28,0.35 0.47,0.74 0.7,1.11 0.28,0.43 0.62,0.86 0.96,1.24 0.33,0.37 0.49,0.81 0.69,1.26 0.2,0.44 0.39,0.89 0.68,1.27 0.31,0.43 1.37,3.74 1.28,4.15 -0.17,0.72 -0.09,1.49 -0.16,2.22 -0.15,1.44 -0.36,2.89 -0.57,4.32 -0.45,3.02 -0.38,6.19 -0.56,9.24 -0.04,0.8 -0.06,1.62 -0.04,2.42 0,0.38 -0.02,0.88 0,1.36 -0.17,1.87 0.43,4.84 0.44,6.5 0.01,1.97 -0.1,3.91 -0.35,5.86 -0.27,2.04 -0.09,4 -0.13,6.04 -0.03,1.66 -0.5,3.58 1.56,3.95 1.6,0.29 3.34,0.42 4.97,0.2 -0.1,0.67 -0.27,1.3 -0.56,1.92 -0.36,0.76 -0.95,1.6 -0.91,2.49 0.08,1.8 2.83,1.5 4.01,1.4 0.89,-0.06 1.76,-0.11 2.64,-0.09 0.96,0.22 1.91,0.45 2.86,0.66 1.14,0.24 3.35,0.57 4.28,-0.53 1.15,-1.37 -1.33,-1.5 -2.13,-1.85 -1.03,-0.46 -2.19,-1.47 -3.03,-2.22 -0.54,-0.48 -0.72,-1.16 -1.18,-1.69 -0.4,-0.46 -0.88,-0.49 -1.38,-0.39 -0.05,-0.13 -0.1,-0.26 -0.16,-0.39 0.78,-0.38 0.1,-2.42 0.05,-3 -0.1,-1.12 -0.25,-2.27 -0.64,-3.33 -0.4,-1.08 -0.12,-2.16 -0.2,-3.27 -0.07,-1.04 -0.52,-2.05 -0.56,-3.12 -0.03,-0.74 0.45,-2.66 -0.21,-3.2 0.2,-1.09 -0.21,-3.2 -0.22,-3.97 0,-0.95 -0.09,-1.86 -0.04,-2.81 0.05,-1 0.27,-1.89 0.41,-2.85 0.15,-1.05 0.32,-1.84 0.9,-2.75 0.38,-0.6 0.69,-1.32 1.1,-1.91 0.81,0.13 1.85,0.45 2.26,0.42 1.07,-0.07 1.41,-0.16 2.45,-0.33 0.17,-0.03 1.92,2.96 3.48,3.61 1.57,0.64 4.65,-0.6 4.69,-0.6 0.28,1.17 2,0.04 2.65,-0.12 0.59,-0.15 2.05,-0.66 2.64,-0.73 1.23,-0.14 1.79,-0.4 2.84,-1.15 1.01,-0.73 1.29,-2.07 1.57,-3.23 0.29,-1.23 0.76,-2.55 0.28,-3.75 0.36,-0.22 0.52,-0.42 0.58,-0.91 0.04,-0.38 0.03,-0.8 -0.03,-1.18 0.06,-0.06 0.12,-0.1 0.17,-0.15 0.27,-0.22 0.56,-0.37 0.83,-0.56 0.3,-0.2 0.55,-0.46 0.85,-0.66 0.29,-0.18 0.58,-0.39 0.86,-0.57 0.22,-0.13 0.49,-0.35 0.74,-0.48 0.18,0.08 0.34,0.15 0.56,0.15 0.53,-0.02 1.06,-0.39 1.5,-0.67 0.24,-0.16 0.53,-0.32 0.72,-0.52 0.15,-0.16 0.19,-0.34 0.21,-0.54 0.31,-0.08 0.59,-0.11 0.86,-0.4 0.59,-0.61 1.27,-1.11 1.75,-1.84 0.45,-0.67 1.02,-1.57 0.22,-2.1z"/>
 </g>
</svg>
