<?xml version="1.0" encoding="UTF-8"?>
<!DOCTYPE svg PUBLIC "-//W3C//DTD SVG 1.1//EN" "http://www.w3.org/Graphics/SVG/1.1/DTD/svg11.dtd">
<!-- Creator: CorelDRAW 2020 (64 Bit) -->
<svg xmlns="http://www.w3.org/2000/svg" xml:space="preserve" width="41px" height="75px" version="1.1" style="shape-rendering:geometricPrecision; text-rendering:geometricPrecision; image-rendering:optimizeQuality; fill-rule:evenodd; clip-rule:evenodd"
viewBox="0 0 1.98 3.66"
 xmlns:xlink="http://www.w3.org/1999/xlink"
 xmlns:xodm="http://www.corel.com/coreldraw/odm/2003">
 <defs>
  <style type="text/css">
   <![CDATA[
    .fil0 {fill:#3B5997}
   ]]>
  </style>
 </defs>
 <g id="Camada_x0020_1">
  <metadata id="CorelCorpID_0Corel-Layer"/>
  <g id="_1416244722704">
   <path class="fil0" d="M0.39 0.71l0.47 0c0.06,0 0.11,-0.02 0.11,0.04 -0.04,0.03 -0.21,0.02 -0.28,0.02 -0.1,0 -0.2,0 -0.3,0l0 0.26c0.11,0.01 0.52,-0.01 0.58,0.01l0 0.05c-0.05,0.01 -0.49,0 -0.58,0l0 0.27 0.46 0c0.04,0 0.12,-0.01 0.12,0.03 0,0.04 -0.08,0.03 -0.12,0.03l-0.45 0c-0.02,0.05 -0.01,0.21 -0.01,0.26 0.11,0.01 0.51,-0.01 0.58,0.01 0.02,0.07 -0.04,0.05 -0.1,0.05l-0.47 0c0,0.14 0.16,0.34 0.31,0.42 0.19,0.1 0.39,0.09 0.58,-0.01 0.13,-0.07 0.26,-0.23 0.29,-0.43 0.02,-0.09 0.01,-0.59 0.01,-0.72 0,-0.22 0.03,-0.48 -0.06,-0.66 -0.27,-0.55 -1.17,-0.44 -1.14,0.37z"/>
   <path class="fil0" d="M0.89 2.93c0.01,0.01 0.02,0.51 0.01,0.56l-0.51 0c-0.09,0.01 -0.09,0.13 -0.02,0.16 0.04,0.02 1,0.01 1.16,0.01 0.05,0 0.09,0 0.11,-0.03 0.03,-0.03 0.03,-0.08 0,-0.12 -0.04,-0.04 -0.19,-0.02 -0.26,-0.02 -0.1,0 -0.2,0 -0.3,-0.01l0.02 -0.74c0.12,-0.04 0.23,-0.02 0.4,-0.13 0.13,-0.07 0.2,-0.14 0.28,-0.25 0.07,-0.1 0.13,-0.24 0.16,-0.38 0.02,-0.09 0.06,-0.4 0.03,-0.48 -0.04,-0.08 -0.15,-0.07 -0.17,0.01 -0.01,0.07 0.07,0.7 -0.37,0.96 -0.12,0.07 -0.28,0.1 -0.44,0.1 -0.54,0 -0.77,-0.35 -0.81,-0.8 0,-0.06 0.01,-0.22 0,-0.26 -0.02,-0.08 -0.13,-0.08 -0.17,-0.01 -0.03,0.08 0.01,0.39 0.03,0.48 0.03,0.15 0.09,0.28 0.16,0.38 0.16,0.23 0.4,0.36 0.69,0.38l0 0.19z"/>
   <path class="fil0" d="M0.39 3.49l0.51 0c0.01,-0.05 0,-0.55 -0.01,-0.56l0.01 0.55c-0.07,0 -0.49,-0.01 -0.51,0.01z"/>
  </g>
 </g>
</svg>
