<?xml version="1.0" encoding="UTF-8"?>
<!DOCTYPE svg PUBLIC "-//W3C//DTD SVG 1.1//EN" "http://www.w3.org/Graphics/SVG/1.1/DTD/svg11.dtd">
<!-- Creator: CorelDRAW 2020 (64 Bit) -->
<svg xmlns="http://www.w3.org/2000/svg" xml:space="preserve" width="67px" height="67px" version="1.1" style="shape-rendering:geometricPrecision; text-rendering:geometricPrecision; image-rendering:optimizeQuality; fill-rule:evenodd; clip-rule:evenodd"
viewBox="0 0 5.31 5.31"
 xmlns:xlink="http://www.w3.org/1999/xlink"
 xmlns:xodm="http://www.corel.com/coreldraw/odm/2003">
 <defs>
  <style type="text/css">
   <![CDATA[
    .fil0 {fill:#3B5997}
   ]]>
  </style>
 </defs>
 <g id="Camada_x0020_1">
  <metadata id="CorelCorpID_0Corel-Layer"/>
  <g id="_1351703733168">
   <path class="fil0" d="M3.74 2.31c-0.13,0.86 -0.94,1.59 -1.98,1.43 -0.84,-0.13 -1.59,-0.97 -1.41,-1.99 0.15,-0.84 0.94,-1.56 1.97,-1.4 0.85,0.13 1.57,0.94 1.42,1.96zm-0.05 0.95c0.61,-0.73 0.54,-2.02 -0.32,-2.77 -0.34,-0.3 -0.85,-0.52 -1.46,-0.49 -1.03,0.07 -1.88,0.92 -1.91,1.97 -0.03,1.08 0.73,1.96 1.77,2.1 0.68,0.1 1.04,-0.12 1.51,-0.38l0.97 1.09c0.2,0.22 0.55,0.79 0.94,0.39 0.35,-0.37 -0.18,-0.69 -0.33,-0.85l-0.48 -0.42c-0.12,-0.13 -0.63,-0.52 -0.69,-0.64z"/>
   <path class="fil0" d="M3.18 1.72c0.54,0.01 -0.21,-1.06 -1.07,-1.08 -0.24,-0.01 -0.28,0.22 0.01,0.24 0.37,0.04 0.6,0.17 0.83,0.44 0.11,0.12 0.14,0.23 0.23,0.4z"/>
   <path class="fil0" d="M3.24 2.21c0.26,0.06 0.25,-0.16 0.18,-0.32 -0.25,-0.05 -0.25,0.13 -0.18,0.32z"/>
  </g>
 </g>
</svg>
