<?xml version="1.0" encoding="UTF-8"?>
<!DOCTYPE svg PUBLIC "-//W3C//DTD SVG 1.1//EN" "http://www.w3.org/Graphics/SVG/1.1/DTD/svg11.dtd">
<!-- Creator: CorelDRAW 2020 (64 Bit) -->
<svg xmlns="http://www.w3.org/2000/svg" xml:space="preserve" width="70px" height="47px" version="1.1" style="shape-rendering:geometricPrecision; text-rendering:geometricPrecision; image-rendering:optimizeQuality; fill-rule:evenodd; clip-rule:evenodd"
viewBox="0 0 5.1 3.41"
 xmlns:xlink="http://www.w3.org/1999/xlink"
 xmlns:xodm="http://www.corel.com/coreldraw/odm/2003">
 <defs>
  <style type="text/css">
   <![CDATA[
    .fil0 {fill:#3B5997}
   ]]>
  </style>
 </defs>
 <g id="Camada_x0020_1">
  <metadata id="CorelCorpID_0Corel-Layer"/>
  <g id="_2206425222800">
   <path class="fil0" d="M0.75 1.13c0.01,0.12 -0.13,0.22 -0.16,0.53l-0.14 0.33c-0.01,0.02 -0.01,0 -0.02,0.05 -0.02,0.06 -0.02,0.18 0.02,0.24 0,0 0.01,0.01 0.01,0.01 0.04,0.05 0.09,0.06 0.08,0.14 -0.04,0.21 -0.13,0.82 -0.11,0.97l0.53 0.01c0.02,-0.14 -0.02,-0.45 -0.04,-0.63 -0.01,-0.06 -0.07,-0.28 -0.04,-0.39 0.02,-0.13 0.05,-0.04 0.08,-0.15 0.03,-0.1 0.03,-0.29 -0.11,-0.33 -0.01,-0.14 0.03,-0.27 0.06,-0.37l0.1 -0.22c0.04,-0.07 0.01,0 0.04,-0.07 0.13,0 0.41,0.13 0.51,0.15l0.64 0.19c0.2,0.07 0.31,0.16 0.52,0.07l1.96 -0.62c0.07,-0.02 0.38,-0.11 0.4,-0.14 0.03,-0.07 0.01,-0.03 0,-0.1 -0.03,-0.01 -0.13,-0.04 -0.16,-0.06l-0.82 -0.26c-0.05,-0.01 -0.03,-0.01 -0.09,-0.03l-0.93 -0.28c-0.06,-0.02 -0.49,-0.17 -0.55,-0.17 -0.06,0 -0.12,0.05 -0.18,0.06l-0.32 0.1c0,0.01 -0.01,0.01 -0.01,0.01l-0.59 0.18c-0.11,0.04 -0.25,0.07 -0.37,0.11 -0.06,0.02 -0.12,0.05 -0.18,0.07l-0.47 0.13c-0.05,0.02 -0.05,0.02 -0.09,0.03 -0.17,0.07 -0.38,0.07 -0.3,0.21 0.02,0.04 0.41,0.15 0.52,0.19 0.07,0.02 0.12,0.03 0.21,0.04z"/>
   <path class="fil0" d="M2.74 2.83c0.3,0 0.87,-0.11 1.1,-0.32 0,0 0.01,-0.01 0.01,-0.01l0.07 -0.08c0.1,-0.15 0.02,-0.59 0,-0.84l-0.83 0.26c-0.01,0 -0.01,0 -0.02,0.01 -0.06,0.02 -0.12,0.02 -0.18,0.04 -0.33,0.11 -0.37,0.15 -0.8,-0.02 -0.18,-0.08 -0.44,-0.14 -0.62,-0.2l-0.27 -0.09 -0.05 0.11c-0.01,0.04 -0.01,0.11 -0.01,0.15 0,0.2 -0.05,0.49 0.03,0.59 0.04,0.05 0.11,0.11 0.17,0.15 0.43,0.25 0.91,0.25 1.4,0.25z"/>
  </g>
 </g>
</svg>
