<?xml version="1.0" encoding="UTF-8"?>
<!DOCTYPE svg PUBLIC "-//W3C//DTD SVG 1.1//EN" "http://www.w3.org/Graphics/SVG/1.1/DTD/svg11.dtd">
<!-- Creator: CorelDRAW 2020 (64 Bit) -->
<svg xmlns="http://www.w3.org/2000/svg" xml:space="preserve" width="83px" height="49px" version="1.1" style="shape-rendering:geometricPrecision; text-rendering:geometricPrecision; image-rendering:optimizeQuality; fill-rule:evenodd; clip-rule:evenodd"
viewBox="0 0 7.09 4.13"
 xmlns:xlink="http://www.w3.org/1999/xlink"
 xmlns:xodm="http://www.corel.com/coreldraw/odm/2003">
 <defs>
  <style type="text/css">
   <![CDATA[
    .fil0 {fill:#3B5997}
   ]]>
  </style>
 </defs>
 <g id="Camada_x0020_1">
  <metadata id="CorelCorpID_0Corel-Layer"/>
  <g id="_2206281499312">
   <path class="fil0" d="M0.75 2.57c-0.34,0.04 -0.57,0.22 -0.68,0.48 -0.1,0.25 -0.06,0.76 -0.06,1.08l2.19 0 0 -0.41c0.11,0.06 0.25,0.2 0.39,0.2 0.26,0.02 0.29,-0.19 0.35,-0.25l1.6 -1.33c0.2,-0.16 0.27,-0.19 0.17,-0.3 -0.12,0 -0.33,0.22 -0.48,0.34 -0.15,0.12 -0.29,0.24 -0.44,0.37 -0.31,0.25 -0.58,0.48 -0.89,0.74 -0.07,-0.05 -0.02,-0.06 -0.2,-0.17 -0.08,-0.05 -0.15,-0.1 -0.23,-0.15 -0.13,-0.08 -0.37,-0.22 -0.46,-0.32 -0.31,-0.35 -0.67,-0.31 -1.26,-0.28z"/>
   <path class="fil0" d="M1.72 1.01c0,0.11 0.04,0.1 0.1,0.17l0.12 0.18c0,-0.3 0,-0.62 0,-0.93 0,-0.18 0.09,-0.19 0.26,-0.19l3.24 0c1.23,0 1.07,-0.2 1.07,0.79 0,0.3 0,0.6 0,0.9l-0.01 0.48 0.23 0.11c0.01,-0.35 0,-0.71 0,-1.07 0,-0.35 0.02,-0.72 0,-1.06 -0.01,-0.45 -0.46,-0.38 -0.68,-0.38l-3.2 0c-0.25,0 -0.82,-0.05 -0.98,0.07 -0.12,0.09 -0.15,0.19 -0.15,0.38 0,0.19 0,0.37 0,0.55z"/>
   <path class="fil0" d="M0.98 2.5c0.46,0.08 0.83,-0.29 0.84,-0.7 0.01,-0.47 -0.36,-0.77 -0.83,-0.74 -0.33,0.04 -0.62,0.33 -0.63,0.71 -0.01,0.41 0.28,0.65 0.62,0.73z"/>
   <path class="fil0" d="M5.33 3.12c0.14,0.05 0.37,0.17 0.51,0.25 0.24,0.12 0.39,0.02 0.58,-0.07 0.77,-0.39 0.84,-0.36 0.41,-0.58 -0.17,-0.08 -0.33,-0.16 -0.5,-0.25 -0.24,-0.12 -0.35,-0.09 -0.58,0.03 -0.65,0.32 -0.94,0.38 -0.5,0.57 0,0.14 0,0.28 0,0.42 0,0.03 0,0.09 0,0.11 -0.01,0.08 -0.01,0.02 -0.03,0.08 -0.06,0.13 0.18,0.17 0.15,0.02 -0.02,-0.06 -0.02,-0.01 -0.04,-0.09l0 -0.49z"/>
   <path class="fil0" d="M5.38 3.19c0,0.1 -0.01,0.36 0.01,0.43 0.02,0.05 0.07,0.09 0.02,0.17 -0.06,0.09 -0.06,-0.01 -0.06,0.16 0.11,0.05 0.17,0.09 0.32,0.12 0.36,0.08 0.8,0.05 1.1,-0.12l0.01 -0.77c-0.21,0.06 -0.47,0.28 -0.7,0.29 -0.22,0.02 -0.5,-0.21 -0.7,-0.28z"/>
   <path class="fil0" d="M3.32 3.75c-0.13,0 -0.15,-0.02 -0.23,0.06l-0.12 0.17 2.24 0c0,-0.1 -0.02,-0.05 -0.08,-0.12 -0.03,-0.03 -0.04,-0.07 -0.07,-0.11l-1.74 0z"/>
  </g>
 </g>
</svg>
