<?xml version="1.0" encoding="UTF-8"?>
<!DOCTYPE svg PUBLIC "-//W3C//DTD SVG 1.1//EN" "http://www.w3.org/Graphics/SVG/1.1/DTD/svg11.dtd">
<!-- Creator: CorelDRAW 2020 (64 Bit) -->
<svg xmlns="http://www.w3.org/2000/svg" xml:space="preserve" width="57px" height="45px" version="1.1" style="shape-rendering:geometricPrecision; text-rendering:geometricPrecision; image-rendering:optimizeQuality; fill-rule:evenodd; clip-rule:evenodd"
viewBox="0 0 3.48 2.73"
 xmlns:xlink="http://www.w3.org/1999/xlink"
 xmlns:xodm="http://www.corel.com/coreldraw/odm/2003">
 <defs>
  <style type="text/css">
   <![CDATA[
    .fil0 {fill:#FEFEFE}
   ]]>
  </style>
 </defs>
 <g id="Camada_x0020_1">
  <metadata id="CorelCorpID_0Corel-Layer"/>
  <path class="fil0" d="M2.36 0.14l0 0.36 -0.89 0c-0.05,0 -0.1,0.05 -0.1,0.12 0,0.07 0.06,0.13 0.12,0.13l0.98 0c0.04,0 0.06,-0.01 0.09,-0.03 0.07,-0.05 0.05,-0.18 0.05,-0.29l0.56 0.56 -0.56 0.57c0,-0.06 0,-0.2 -0.01,-0.24 -0.02,-0.05 -0.07,-0.08 -0.15,-0.08l-1.33 0 0 -0.37c0,-0.04 -0.02,-0.07 -0.03,-0.09 -0.09,-0.09 -0.18,-0.01 -0.24,0.05l-0.75 0.75c-0.05,0.05 -0.1,0.09 -0.1,0.17 0,0.06 0.06,0.1 0.1,0.14l0.74 0.74c0.06,0.06 0.07,0.1 0.17,0.1 0.06,0 0.11,-0.07 0.11,-0.14l0 -0.36 0.88 0c0.05,0 0.11,-0.05 0.11,-0.12 0,-0.07 -0.06,-0.13 -0.13,-0.13l-0.97 0c-0.18,0 -0.14,0.19 -0.14,0.32l-0.57 -0.56 0.57 -0.57c0,0.06 -0.01,0.2 0,0.24 0.02,0.05 0.08,0.08 0.16,0.08l1.33 0 0 0.37c0,0.08 0.06,0.13 0.12,0.13 0.08,0 0.2,-0.15 0.28,-0.22l0.62 -0.62c0.05,-0.05 0.1,-0.08 0.1,-0.17 0,-0.06 -0.07,-0.1 -0.1,-0.14l-0.74 -0.74c-0.07,-0.06 -0.07,-0.1 -0.17,-0.1 -0.06,0 -0.11,0.06 -0.11,0.14z"/>
 </g>
</svg>
